<?xml version="1.0" encoding="UTF-8"?>
<svg version="1.1" xmlns="http://www.w3.org/2000/svg" width="500" height="500">
<path d="M0 0 C165 0 330 0 500 0 C500 165 500 330 500 500 C335 500 170 500 0 500 C0 335 0 170 0 0 Z " fill="#FEFEFE" transform="translate(0,0)"/>
<path d="M0 0 C0.78402191 -0.01635498 1.56804382 -0.03270996 2.37582397 -0.04956055 C4.97903391 -0.09930888 7.58202442 -0.13232066 10.18554688 -0.16113281 C11.07590134 -0.17178017 11.9662558 -0.18242752 12.8835907 -0.19339752 C17.60237179 -0.24689537 22.32104679 -0.28562162 27.04003906 -0.31445312 C30.93618396 -0.3410668 34.8302171 -0.39662854 38.72558594 -0.47851562 C43.43551955 -0.5775249 48.14354724 -0.62673733 52.85447693 -0.64090729 C54.64388324 -0.65428155 56.43325125 -0.68459589 58.22206116 -0.7326889 C72.20235887 -1.08690264 72.20235887 -1.08690264 77.63549805 2.54675293 C80.12898825 5.03738808 82.24548632 7.6064396 84.40429688 10.38574219 C85.87096649 11.71513416 87.3660515 13.01486742 88.90429688 14.26074219 C91.6038121 16.462396 92.89416694 18.26784461 94.40429688 21.38574219 C95.72076806 22.08511751 97.05451839 22.75303352 98.40429688 23.38574219 C100.81737429 27.00535831 100.67370903 29.6164759 100.63134766 33.79467773 C100.63163971 34.54614075 100.63193176 35.29760376 100.63223267 36.07183838 C100.63083941 38.55549672 100.61527853 41.03885501 100.59960938 43.52246094 C100.59587923 45.2445306 100.59303226 46.96660238 100.59103394 48.68867493 C100.58339761 53.2211798 100.56374912 57.75355651 100.54162598 62.28601074 C100.52116755 66.91103379 100.51203222 71.53607755 100.50195312 76.16113281 C100.48050323 85.23605892 100.44636727 94.31088989 100.40429688 103.38574219 C98.42429687 103.38574219 96.44429688 103.38574219 94.40429688 103.38574219 C94.40429688 78.96574219 94.40429688 54.54574219 94.40429688 29.38574219 C88.13429688 29.38574219 81.86429687 29.38574219 75.40429688 29.38574219 C71.40429688 25.38574219 71.40429688 25.38574219 70.40429688 22.38574219 C70.40429688 17.10574219 70.40429688 11.82574219 70.40429688 6.38574219 C45.65429688 6.38574219 20.90429688 6.38574219 -4.59570312 6.38574219 C-4.59570312 46.97574219 -4.59570312 87.56574219 -4.59570312 129.38574219 C21.80429688 129.38574219 48.20429688 129.38574219 75.40429688 129.38574219 C75.89929688 131.86074219 75.89929688 131.86074219 76.40429688 134.38574219 C65.48661659 134.43201288 54.56895949 134.46758452 43.65120125 134.48936653 C38.58204824 134.49981899 33.51296215 134.51400476 28.44384766 134.53662109 C23.55500503 134.55829747 18.6662269 134.57029979 13.77733994 134.57549667 C11.90895446 134.57920181 10.04057264 134.58643668 8.17221451 134.5972023 C5.56215948 134.61164813 2.9523735 134.61372305 0.34228516 134.61279297 C-0.43598633 134.61998352 -1.21425781 134.62717407 -2.01611328 134.63458252 C-7.3675988 134.61384651 -7.3675988 134.61384651 -9.59570312 132.38574219 C-9.84738541 130.11497498 -9.84738541 130.11497498 -9.84967041 127.22338867 C-9.85531006 126.12968964 -9.86094971 125.0359906 -9.86676025 123.90914917 C-9.86271179 122.7038858 -9.85866333 121.49862244 -9.85449219 120.25683594 C-9.85799683 118.9917923 -9.86150146 117.72674866 -9.8651123 116.42337036 C-9.8742489 112.94821995 -9.87068688 109.47318797 -9.86435413 105.99803543 C-9.85930068 102.36611861 -9.86398376 98.73421213 -9.86712646 95.10229492 C-9.87076803 89.00242283 -9.86596205 82.90259912 -9.85644531 76.80273438 C-9.84556037 69.74426235 -9.84908582 62.68590586 -9.86009812 55.62743664 C-9.8691656 49.5739019 -9.87045893 43.52040201 -9.86522079 37.46686268 C-9.8620981 33.8484031 -9.86169987 30.22999787 -9.86829376 26.61154175 C-9.87512826 22.57917404 -9.86566331 18.54700641 -9.85449219 14.51464844 C-9.85854065 13.30938507 -9.86258911 12.1041217 -9.86676025 10.86233521 C-9.86112061 9.76863617 -9.85548096 8.67493713 -9.84967041 7.5480957 C-9.84891636 6.59387222 -9.84816231 5.63964874 -9.84738541 4.6565094 C-9.22971725 -0.91631279 -4.42561137 0.05068935 0 0 Z " fill="#3F474A" transform="translate(91.595703125,182.6142578125)"/>
<path d="M0 0 C10.51828727 -0.23238603 21.03595751 -0.40972506 31.55629539 -0.51812172 C36.44226551 -0.57016638 41.32647116 -0.6406718 46.21142578 -0.75439453 C50.93189258 -0.86359176 55.65067009 -0.92295175 60.37230301 -0.94877243 C62.16735035 -0.96715534 63.96231204 -1.00305626 65.75663376 -1.05730057 C79.80228858 -1.46476784 79.80228858 -1.46476784 85.23565674 2.15655518 C87.72999724 4.64815383 89.84345787 7.21740286 92 10 C93.46650953 11.32956856 94.96157761 12.62934381 96.5 13.875 C99.19951522 16.07665381 100.48987006 17.88210242 102 21 C103.31647119 21.69937532 104.65022151 22.36729133 106 23 C108.41307741 26.61961612 108.26941215 29.23073371 108.22705078 33.40893555 C108.22734283 34.16039856 108.22763489 34.91186157 108.22793579 35.68609619 C108.22654253 38.16975453 108.21098166 40.65311282 108.1953125 43.13671875 C108.19158235 44.85878841 108.18873539 46.5808602 108.18673706 48.30293274 C108.17910073 52.83543762 108.15945225 57.36781432 108.1373291 61.90026855 C108.11687067 66.52529161 108.10773535 71.15033537 108.09765625 75.77539062 C108.07620635 84.85031673 108.0420704 93.92514771 108 103 C106.02 103 104.04 103 102 103 C102 78.58 102 54.16 102 29 C95.73 29 89.46 29 83 29 C79 25 79 25 78 22 C78 16.72 78 11.44 78 6 C53.25 6 28.5 6 3 6 C3 5.67 3 5.34 3 5 C27.42 4.67 51.84 4.34 77 4 C77.33 3.34 77.66 2.68 78 2 C52.26 1.67 26.52 1.34 0 1 C0 0.67 0 0.34 0 0 Z " fill="#4B5256" transform="translate(84,183)"/>
<path d="M0 0 C4.41417597 2.02170659 7.17230181 4.86191499 10 8.75 C11.58186211 13.89105185 12.18313623 19.11642554 10.09765625 24.19921875 C9 26.125 9 26.125 7 29 C6.34 29 5.68 29 5 29 C5 29.66 5 30.32 5 31 C-0.46265741 34.54334535 -5.68682528 34.84677455 -12 34 C-17.44828485 31.32538744 -20.80193714 27.62432816 -23.3125 22.125 C-24.63375005 16.11931797 -23.23799194 11.13612515 -20 6 C-13.83199486 -0.11852916 -8.53695878 -1.12187819 0 0 Z " fill="#E56956" transform="translate(193,290)"/>
<path d="M0 0 C4.62 0 9.24 0 14 0 C14 6.93 14 13.86 14 21 C16.97 21 19.94 21 23 21 C22.7936229 26.66993929 18.98981749 29.63764673 15.1875 33.375 C14.55779297 34.02855469 13.92808594 34.68210937 13.27929688 35.35546875 C12.66505859 35.96777344 12.05082031 36.58007812 11.41796875 37.2109375 C10.85875732 37.77087402 10.2995459 38.33081055 9.72338867 38.90771484 C8 40 8 40 6.01586914 39.88110352 C3.59929863 38.82485997 2.18794921 37.56035692 0.328125 35.69140625 C-0.66767578 34.69463867 -0.66767578 34.69463867 -1.68359375 33.67773438 C-2.36550781 32.97970703 -3.04742187 32.28167969 -3.75 31.5625 C-4.44738281 30.86833984 -5.14476563 30.17417969 -5.86328125 29.45898438 C-11 24.26697805 -11 24.26697805 -11 22 C-7.7 21.67 -4.4 21.34 -1 21 C-0.67 14.07 -0.34 7.14 0 0 Z " fill="#9587B8" transform="translate(130,231)"/>
<path d="M0 0 C6.93 0 13.86 0 21 0 C21 6.93 21 13.86 21 21 C14.07 21 7.14 21 0 21 C0 14.07 0 7.14 0 0 Z " fill="#D7A93D" transform="translate(139,280)"/>
<path d="M0 0 C6.93 0 13.86 0 21 0 C21 6.93 21 13.86 21 21 C14.07 21 7.14 21 0 21 C0 14.07 0 7.14 0 0 Z " fill="#55A39C" transform="translate(113,280)"/>
<path d="M0 0 C6.93 0 13.86 0 21 0 C21 6.93 21 13.86 21 21 C14.07 21 7.14 21 0 21 C0 14.07 0 7.14 0 0 Z " fill="#ED7A63" transform="translate(95,199)"/>
<path d="M0 0 C10.51828727 -0.23238603 21.03595751 -0.40972506 31.55629539 -0.51812172 C36.44226551 -0.57016638 41.32647116 -0.6406718 46.21142578 -0.75439453 C50.93189258 -0.86359176 55.65067009 -0.92295175 60.37230301 -0.94877243 C62.16735035 -0.96715534 63.96231204 -1.00305626 65.75663376 -1.05730057 C79.80794727 -1.464932 79.80794727 -1.464932 85.26641846 2.18292236 C87.75594519 4.66657264 89.86958029 7.20908817 92 10 C93.93290837 11.78101084 95.93642559 13.37086231 98 15 C97.34 15.99 96.68 16.98 96 18 C95.34 18 94.68 18 94 18 C95.32 19.98 96.64 21.96 98 24 C96.04196493 24.05389087 94.08351091 24.09274217 92.125 24.125 C91.03445312 24.14820313 89.94390625 24.17140625 88.8203125 24.1953125 C86 24 86 24 84 22 C83.97790877 18.92931946 84.19843481 15.90996871 84.41796875 12.84765625 C84.31013879 9.8658366 84.31013879 9.8658366 81.94538879 8.3490448 C78.3813825 6.71666127 75.29952332 6.55966358 71.45581055 6.56762695 C70.71380905 6.5574353 69.97180756 6.54724365 69.20732117 6.53674316 C66.76704298 6.5066702 64.32715771 6.4973562 61.88671875 6.48828125 C60.18991294 6.47143029 58.49311957 6.45327948 56.79634094 6.43388367 C52.33958833 6.38642265 47.8828862 6.35658815 43.42596436 6.33044434 C38.87436961 6.3006191 34.32294875 6.25409551 29.77148438 6.20898438 C20.84774729 6.12299566 11.92397437 6.05563069 3 6 C3 5.67 3 5.34 3 5 C27.42 4.67 51.84 4.34 77 4 C77.33 3.34 77.66 2.68 78 2 C52.26 1.67 26.52 1.34 0 1 C0 0.67 0 0.34 0 0 Z " fill="#646A6C" transform="translate(84,183)"/>
<path d="M0 0 C1.59765625 0.9140625 1.59765625 0.9140625 3.91015625 3.3515625 C4.78515625 7.1015625 4.78515625 7.1015625 4.91015625 10.3515625 C-1.7768775 13.56648257 -1.7768775 13.56648257 -6.08984375 12.3515625 C-8.50366135 12.13038691 -10.92098972 11.94584008 -13.33984375 11.7890625 C-14.603125 11.70527344 -15.86640625 11.62148438 -17.16796875 11.53515625 C-18.1321875 11.47457031 -19.09640625 11.41398437 -20.08984375 11.3515625 C-20.08984375 14.3215625 -20.08984375 17.2915625 -20.08984375 20.3515625 C-19.42984375 20.3515625 -18.76984375 20.3515625 -18.08984375 20.3515625 C-18.08984375 19.6915625 -18.08984375 19.0315625 -18.08984375 18.3515625 C-16.10984375 18.0215625 -14.12984375 17.6915625 -12.08984375 17.3515625 C-13.77734375 19.8515625 -13.77734375 19.8515625 -16.08984375 22.3515625 C-18.83984375 22.6640625 -18.83984375 22.6640625 -21.08984375 22.3515625 C-21.08984375 24.0015625 -21.08984375 25.6515625 -21.08984375 27.3515625 C-24.21273239 24.79647179 -25.19065008 22.2480684 -26.08984375 18.3515625 C-25.79464462 12.84117871 -24.65863187 7.89974537 -20.62890625 3.90234375 C-14.57373023 -1.25194023 -7.75493814 -2.40620511 0 0 Z " fill="#E66651" transform="translate(195.08984375,290.6484375)"/>
<path d="M0 0 C13.125 -0.53571429 13.125 -0.53571429 16.75 1.875 C19.82200326 4.77633641 19.95875992 5.49687102 20.3125 9.8125 C20.27673467 13.09098835 19.99591603 14.00661884 18.1875 16.9375 C13.25523357 21.58792264 6.35619688 20.06293264 0 20 C0 13.4 0 6.8 0 0 Z " fill="#494D51" transform="translate(379,226)"/>
<path d="M0 0 C0.66 0 1.32 0 2 0 C2 24.09 2 48.18 2 73 C0.68 73 -0.64 73 -2 73 C-2.04627979 63.77730794 -2.08184694 54.55465566 -2.10362434 45.33187294 C-2.11407483 41.04965752 -2.12825697 36.76752136 -2.15087891 32.48535156 C-2.17256238 28.35511874 -2.18455909 24.22496231 -2.18975449 20.09467697 C-2.19345835 18.51656262 -2.2006908 16.93845259 -2.21146011 15.36037064 C-2.22591549 13.15503049 -2.22798048 10.95000858 -2.22705078 8.74462891 C-2.231492 7.48776276 -2.23593323 6.23089661 -2.24050903 4.9359436 C-2 2 -2 2 0 0 Z " fill="#3E4548" transform="translate(189,212)"/>
<path d="M0 0 C12.61811968 -0.41598197 12.61811968 -0.41598197 17 3 C18.1875 6.375 18.1875 6.375 18 10 C14.65468951 13.93073983 13.29924706 14.89522201 8.125 15.3125 C7.09375 15.209375 6.0625 15.10625 5 15 C5 16.65 5 18.3 5 20 C3.35 20 1.7 20 0 20 C0 13.4 0 6.8 0 0 Z " fill="#595E61" transform="translate(358,226)"/>
<path d="M0 0 C0 0.66 0 1.32 0 2 C0.66 2 1.32 2 2 2 C4.18038095 5.27057143 4.63246755 6.20519469 4 10 C2.00081493 12.81135401 0.48572038 14.65872562 -2.97265625 15.453125 C-6.35622826 15.63020914 -8.62810482 15.23243449 -11.5 13.4375 C-13.58392818 10.05111671 -13.55802097 7.90614682 -13 4 C-9.93472556 -1.19763927 -5.39221271 -0.41478559 0 0 Z " fill="#53575A" transform="translate(327,231)"/>
<path d="M0 0 C2.3081858 0.36494929 3.99949383 0.9307293 5.90234375 2.30078125 C7.44821251 5.39251877 7.19593896 7.89507677 6.90234375 11.30078125 C5.40234375 13.73828125 5.40234375 13.73828125 2.90234375 15.30078125 C-2.14144241 16.02132213 -3.95752387 16.13212777 -8.09765625 13.11328125 C-10.09765625 10.30078125 -10.09765625 10.30078125 -10.66015625 7.80078125 C-9.23873128 1.48333696 -6.09850117 -0.39748145 0 0 Z " fill="#4C5052" transform="translate(296.09765625,230.69921875)"/>
<path d="M0 0 C3.33545619 2.73756666 4.86350532 4.19990668 5.60127258 8.52449036 C5.61565897 9.89495939 5.60270998 11.26589088 5.56762695 12.63598633 C5.56835709 13.38774139 5.56908722 14.13949646 5.56983948 14.91403198 C5.56636875 17.38744429 5.5275358 19.85894989 5.48828125 22.33203125 C5.4789512 24.05123364 5.47183599 25.77044935 5.46684265 27.4896698 C5.44778776 32.00602169 5.39870053 36.52156455 5.34332275 41.03759766 C5.29209737 45.64930274 5.26932162 50.26113906 5.24414062 54.87304688 C5.19057988 63.91571928 5.10528575 72.95779226 5 82 C3.02 82 1.04 82 -1 82 C-1.02316419 71.89915071 -1.04093593 61.79830773 -1.05181217 51.69743729 C-1.05703205 47.00726636 -1.06411352 42.3171136 -1.07543945 37.62695312 C-1.08630004 33.1012021 -1.09228359 28.57546856 -1.09487724 24.04970551 C-1.09672576 22.32253494 -1.1003354 20.59536534 -1.10573006 18.86820221 C-1.11298254 16.45019966 -1.11398916 14.03226947 -1.11352539 11.61425781 C-1.11712067 10.89928131 -1.12071594 10.18430481 -1.12442017 9.44766235 C-1.11757486 6.15213628 -1.01912878 3.15124475 0 0 Z M2 8 C-0.30867532 9.87733258 -0.30867532 9.87733258 -0.24050903 12.9359436 C-0.23606781 14.19280975 -0.23162659 15.4496759 -0.22705078 16.74462891 C-0.22734283 17.43742447 -0.22763489 18.13022003 -0.22793579 18.8440094 C-0.22654031 21.13832034 -0.21096919 23.43230816 -0.1953125 25.7265625 C-0.19158314 27.31553978 -0.1887358 28.90451936 -0.18673706 30.49349976 C-0.17909453 34.67914154 -0.15944081 38.8646449 -0.1373291 43.05023193 C-0.11688396 47.31992724 -0.1077382 51.58964487 -0.09765625 55.859375 C-0.07619543 64.23964691 -0.04205211 72.61980625 0 81 C1.32 81 2.64 81 4 81 C4 56.91 4 32.82 4 8 C3.34 8 2.68 8 2 8 Z " fill="#7E8082" transform="translate(187,204)"/>
<path d="M0 0 C4.95 0 9.9 0 15 0 C15 1.32 15 2.64 15 4 C11.7 4 8.4 4 5 4 C5 5.65 5 7.3 5 9 C7.97 9 10.94 9 14 9 C14 10.32 14 11.64 14 13 C11.03 13 8.06 13 5 13 C5 15.31 5 17.62 5 20 C3.35 20 1.7 20 0 20 C0 13.4 0 6.8 0 0 Z " fill="#747779" transform="translate(403,226)"/>
<path d="M0 0 C1.7421875 1.12890625 1.7421875 1.12890625 3 3 C3.29296875 5.91796875 3.29296875 5.91796875 3.1875 9.1875 C3.16042969 10.27417969 3.13335937 11.36085937 3.10546875 12.48046875 C3.07066406 13.31191406 3.03585938 14.14335937 3 15 C1.04196493 15.05389087 -0.91648909 15.09274217 -2.875 15.125 C-3.96554688 15.14820313 -5.05609375 15.17140625 -6.1796875 15.1953125 C-9 15 -9 15 -11 13 C-11.3125 10.5 -11.3125 10.5 -11 8 C-7.3558226 5.5705484 -5.28758728 5.83820425 -1 6 C-1 5.34 -1 4.68 -1 4 C-3.97 4 -6.94 4 -10 4 C-10 3.01 -10 2.02 -10 1 C-6.88450128 -0.55774936 -3.3955612 -0.56480622 0 0 Z " fill="#47494C" transform="translate(251,231)"/>
<path d="M0 0 C4.95 0 9.9 0 15 0 C15 1.32 15 2.64 15 4 C11.37 4 7.74 4 4 4 C4 5.65 4 7.3 4 9 C7.3 9 10.6 9 14 9 C14 10.32 14 11.64 14 13 C10.7 13 7.4 13 4 13 C4 15.31 4 17.62 4 20 C2.68 20 1.36 20 0 20 C0 13.4 0 6.8 0 0 Z " fill="#54585C" transform="translate(214,226)"/>
<path d="M0 0 C2 3 2 3 2 5 C1.01 5 0.02 5 -1 5 C-1 5.66 -1 6.32 -1 7 C1.64 6.34 4.28 5.68 7 5 C7.33 6.32 7.66 7.64 8 9 C5.03 9 2.06 9 -1 9 C-1 11.97 -1 14.94 -1 18 C-0.34 18 0.32 18 1 18 C1 17.34 1 16.68 1 16 C2.98 15.67 4.96 15.34 7 15 C5.3125 17.5 5.3125 17.5 3 20 C0.25 20.3125 0.25 20.3125 -2 20 C-2 21.65 -2 23.3 -2 25 C-5.12288864 22.44490929 -6.10080633 19.8965059 -7 16 C-6.69096557 10.23135722 -5.22303084 5.47003427 -1.3125 1.125 C-0.879375 0.75375 -0.44625 0.3825 0 0 Z " fill="#E76E5C" transform="translate(176,293)"/>
<path d="M0 0 C2.27024968 -0.08097324 4.54132075 -0.13917704 6.8125 -0.1875 C8.07707031 -0.22230469 9.34164062 -0.25710938 10.64453125 -0.29296875 C14 0 14 0 15.96484375 1.34765625 C17 3 17 3 16.75 5.625 C16 8 16 8 15 9 C12.66702567 9.04092937 10.33294775 9.04241723 8 9 C8 8.01 8 7.02 8 6 C6.02 6.33 4.04 6.66 2 7 C2 7.66 2 8.32 2 9 C1.34 9 0.68 9 0 9 C0 6.03 0 3.06 0 0 Z " fill="#F5D4CD" transform="translate(175,302)"/>
<path d="M0 0 C2.09765625 0.37109375 2.09765625 0.37109375 4.16015625 2.37109375 C4.46953125 3.03109375 4.77890625 3.69109375 5.09765625 4.37109375 C1.74662188 5.48810521 -0.49239136 5.10838075 -3.90234375 4.37109375 C-5.19867996 5.4375449 -5.19867996 5.4375449 -4.96484375 7.93359375 C-4.94421875 8.73796875 -4.92359375 9.54234375 -4.90234375 10.37109375 C-1.61538142 11.17062513 -0.19211183 11.46768311 3.09765625 10.37109375 C3.75765625 11.03109375 4.41765625 11.69109375 5.09765625 12.37109375 C4.09765625 13.87109375 4.09765625 13.87109375 2.09765625 15.37109375 C-4.65234375 16.12109375 -4.65234375 16.12109375 -8.40234375 13.87109375 C-10.65623677 10.11460539 -10.38614444 7.72529994 -9.90234375 3.37109375 C-7.17426233 -0.39177718 -4.34638904 -0.12014409 0 0 Z " fill="#565A5A" transform="translate(279.90234375,230.62890625)"/>
<path d="M0 0 C6.25925926 -0.48148148 6.25925926 -0.48148148 9.5 1.625 C11 4 11 4 10.875 7.125 C10 10 10 10 8 12 C5.31160615 12.26991906 2.70858064 12.08737357 0 12 C0 8.04 0 4.08 0 0 Z " fill="#FAFAFA" transform="translate(384,230)"/>
<path d="M0 0 C3.09246438 1.06636703 4.00415447 2.00644659 5.8125 4.8125 C7 8 7 8 6 13 C0.06 13 -5.88 13 -12 13 C-12 11 -12 11 -10 9 C-7.1796875 8.8046875 -7.1796875 8.8046875 -3.875 8.875 C-2.77929688 8.89304688 -1.68359375 8.91109375 -0.5546875 8.9296875 C0.28835937 8.95289063 1.13140625 8.97609375 2 9 C2 8.34 2 7.68 2 7 C1.360625 6.731875 0.72125 6.46375 0.0625 6.1875 C-2 5 -2 5 -3 2 C-2.01 1.34 -1.02 0.68 0 0 Z " fill="#42494C" transform="translate(181,199)"/>
<path d="M0 0 C1.32 0 2.64 0 4 0 C4 1.32 4 2.64 4 4 C5.32 4 6.64 4 8 4 C8 5.32 8 6.64 8 8 C6.68 8 5.36 8 4 8 C4.18129815 11.43793339 4.18129815 11.43793339 5 15 C6.93597032 16.51294288 6.93597032 16.51294288 9 17 C9 17.66 9 18.32 9 19 C5.625 19.125 5.625 19.125 2 19 C0 17 0 17 -0.1953125 14.8359375 C-0.17210937 14.02382812 -0.14890625 13.21171875 -0.125 12.375 C-0.10695313 11.55773437 -0.08890625 10.74046875 -0.0703125 9.8984375 C-0.04710937 9.27195313 -0.02390625 8.64546875 0 8 C-0.66 8 -1.32 8 -2 8 C-2 6.68 -2 5.36 -2 4 C-1.34 4 -0.68 4 0 4 C0 2.68 0 1.36 0 0 Z " fill="#585C5E" transform="translate(259,227)"/>
<path d="M0 0 C1.65 0 3.3 0 5 0 C5 6.93 5 13.86 5 21 C3.35 21 1.7 21 0 21 C0 14.07 0 7.14 0 0 Z " fill="#686D6D" transform="translate(232,225)"/>
<path d="M0 0 C1.65 0 3.3 0 5 0 C5 6.93 5 13.86 5 21 C3.35 21 1.7 21 0 21 C0 14.07 0 7.14 0 0 Z " fill="#64696A" transform="translate(306,225)"/>
<path d="M0 0 C4.89434213 4.09526587 9.70720334 8.26357085 14 13 C14 13.33 14 13.66 14 14 C12.04196493 14.05389087 10.08351091 14.09274217 8.125 14.125 C7.03445312 14.14820313 5.94390625 14.17140625 4.8203125 14.1953125 C2 14 2 14 0 12 C-0.1953125 9.1796875 -0.1953125 9.1796875 -0.125 5.875 C-0.10695312 4.77929688 -0.08890625 3.68359375 -0.0703125 2.5546875 C-0.04710937 1.71164063 -0.02390625 0.86859375 0 0 Z " fill="#F6F7F7" transform="translate(168,193)"/>
<path d="M0 0 C3.0570463 2.779133 4.8106303 5.26225447 5.265625 9.4375 C5.26046875 10.283125 5.2553125 11.12875 5.25 12 C5.25515625 12.845625 5.2603125 13.69125 5.265625 14.5625 C4.98531155 17.13478811 4.2948187 18.7803108 3 21 C2.33333333 18.33333333 1.66666667 15.66666667 1 13 C-0.65 13 -2.3 13 -4 13 C-4 13.99 -4 14.98 -4 16 C-4.66 16 -5.32 16 -6 16 C-6 13.36 -6 10.72 -6 8 C-4.02 7.34 -2.04 6.68 0 6 C0 4.02 0 2.04 0 0 Z " fill="#E27B6F" transform="translate(199,295)"/>
<path d="M0 0 C6.625 -0.25 6.625 -0.25 10 2 C10.4375 4.9375 10.4375 4.9375 10 8 C8.375 9.875 8.375 9.875 6 11 C2.75 11.1875 2.75 11.1875 0 11 C0 7.37 0 3.74 0 0 Z " fill="#BFC0C0" transform="translate(380,257)"/>
<path d="M0 0 C0.33 0 0.66 0 1 0 C1.33 4.62 1.66 9.24 2 14 C3.58272601 12.41727399 3.34735747 10.61965997 3.5625 8.4375 C3.64628906 7.61121094 3.73007812 6.78492188 3.81640625 5.93359375 C3.87699219 5.29550781 3.93757813 4.65742188 4 4 C4.33 4 4.66 4 5 4 C5 7.96 5 11.92 5 16 C10.1693489 15.59443869 10.1693489 15.59443869 15 14 C14.67 14.99 14.34 15.98 14 17 C14.66 17.66 15.32 18.32 16 19 C10.83608171 20.7213061 5.40708764 20.05353552 0 20 C0 13.4 0 6.8 0 0 Z " fill="#777B7E" transform="translate(379,226)"/>
<path d="M0 0 C2.6015625 0.0234375 2.6015625 0.0234375 5.625 0.375 C6.62789063 0.48585937 7.63078125 0.59671875 8.6640625 0.7109375 C9.82035156 0.85402344 9.82035156 0.85402344 11 1 C11 3.31 11 5.62 11 8 C10.113125 7.979375 9.22625 7.95875 8.3125 7.9375 C5.06851263 7.88649166 5.06851263 7.88649166 2.25 8.625 C1.5075 8.74875 0.765 8.8725 0 9 C-2 7 -2 7 -2.25 4.5 C-2 2 -2 2 0 0 Z " fill="#F3F3F4" transform="translate(276,234)"/>
<path d="M0 0 C2.97 0 5.94 0 9 0 C9 1.32 9 2.64 9 4 C7.68 4 6.36 4 5 4 C4.67 7.63 4.34 11.26 4 15 C2.68 15 1.36 15 0 15 C0 10.05 0 5.1 0 0 Z " fill="#42474A" transform="translate(334,231)"/>
<path d="M0 0 C6.93 0 13.86 0 21 0 C21 6.93 21 13.86 21 21 C20.67 21 20.34 21 20 21 C20 14.4 20 7.8 20 1 C11.585 1.495 11.585 1.495 3 2 C3.33 2.99 3.66 3.98 4 5 C3.01 6.485 3.01 6.485 2 8 C1.54860541 10.0492094 1.54860541 10.0492094 1.375 12.1875 C1.25125 13.445625 1.1275 14.70375 1 16 C0.67 16 0.34 16 0 16 C0 10.72 0 5.44 0 0 Z " fill="#D8B563" transform="translate(139,280)"/>
<path d="M0 0 C2.64 0 5.28 0 8 0 C8 2.97 8 5.94 8 9 C5.36 9 2.72 9 0 9 C0 6.03 0 3.06 0 0 Z " fill="#DBB462" transform="translate(120,211)"/>
<path d="M0 0 C2.97 0 5.94 0 9 0 C9 2.64 9 5.28 9 8 C6.03 8 3.06 8 0 8 C0 5.36 0 2.72 0 0 Z " fill="#E68B79" transform="translate(131,212)"/>
<path d="M0 0 C0.94875 0.04125 1.8975 0.0825 2.875 0.125 C2.92895478 1.74963842 2.96777195 3.37478541 3 5 C3.02320313 5.90492188 3.04640625 6.80984375 3.0703125 7.7421875 C2.875 10.125 2.875 10.125 0.875 12.125 C-1.75 11.75 -1.75 11.75 -4.125 11.125 C-4.125 10.795 -4.125 10.465 -4.125 10.125 C-2.475 9.795 -0.825 9.465 0.875 9.125 C-1.105 8.465 -3.085 7.805 -5.125 7.125 C-5.25 4.75 -5.25 4.75 -5.125 2.125 C-3.125 0.125 -3.125 0.125 0 0 Z " fill="#777879" transform="translate(248.125,258.875)"/>
<path d="M0 0 C2.64 0 5.28 0 8 0 C8.38133299 1.9914056 8.71325582 3.99279077 9 6 C8 7 8 7 4.9375 7.0625 C3.968125 7.041875 2.99875 7.02125 2 7 C2 8.32 2 9.64 2 11 C1.34 11 0.68 11 0 11 C0 7.37 0 3.74 0 0 Z " fill="#767778" transform="translate(368,257)"/>
<path d="M0 0 C0.33 0 0.66 0 1 0 C1 2.64 1 5.28 1 8 C1.66 8 2.32 8 3 8 C3 7.34 3 6.68 3 6 C4.98 5.67 6.96 5.34 9 5 C7.3125 7.5 7.3125 7.5 5 10 C2.25 10.3125 2.25 10.3125 0 10 C0 11.65 0 13.3 0 15 C-3.11020134 12.45528982 -4.00133026 9.84103748 -5 6 C-5.125 3.125 -5.125 3.125 -5 1 C-4.34 2.32 -3.68 3.64 -3 5 C-2.34 5 -1.68 5 -1 5 C-0.67 3.35 -0.34 1.7 0 0 Z " fill="#E07E75" transform="translate(174,303)"/>
<path d="M0 0 C3.3 0 6.6 0 10 0 C10 0.99 10 1.98 10 3 C8.02 3.33 6.04 3.66 4 4 C3.95101563 4.62648437 3.90203125 5.25296875 3.8515625 5.8984375 C3.77679688 6.71570313 3.70203125 7.53296875 3.625 8.375 C3.55539062 9.18710938 3.48578125 9.99921875 3.4140625 10.8359375 C3 13 3 13 1 15 C0 14 0 14 -0.09765625 10.83984375 C-0.08025391 8.90818359 -0.08025391 8.90818359 -0.0625 6.9375 C-0.05347656 5.64714844 -0.04445313 4.35679687 -0.03515625 3.02734375 C-0.02355469 2.02832031 -0.01195312 1.02929688 0 0 Z " fill="#454A4D" transform="translate(380,226)"/>
<path d="M0 0 C2.64 0 5.28 0 8 0 C8 2.64 8 5.28 8 8 C5.36 8 2.72 8 0 8 C0 5.36 0 2.72 0 0 Z " fill="#5DA8A2" transform="translate(102,224)"/>
<path d="M0 0 C2.64 0 5.28 0 8 0 C8 2.64 8 5.28 8 8 C5.36 8 2.72 8 0 8 C0 5.36 0 2.72 0 0 Z " fill="#5FA29B" transform="translate(120,200)"/>
<path d="M0 0 C0.99 0.33 1.98 0.66 3 1 C3 3.64 3 6.28 3 9 C5.97 9 8.94 9 12 9 C12 9.66 12 10.32 12 11 C10.72125 11.0825 9.4425 11.165 8.125 11.25 C5.94666582 11.45869931 5.94666582 11.45869931 4 12 C2.4100567 13.92064793 2.4100567 13.92064793 2 16 C1.34 15.67 0.68 15.34 0 15 C0 10.05 0 5.1 0 0 Z " fill="#43474A" transform="translate(404,227)"/>
<path d="M0 0 C2.93453261 0.36681658 3.86437246 0.86437246 6 3 C5.625 5.625 5.625 5.625 5 8 C2.6875 8.6875 2.6875 8.6875 0 9 C-1.875 7.8125 -1.875 7.8125 -3 6 C-2.72963853 3.02602384 -2.14553974 2.14553974 0 0 Z " fill="#B3B4B4" transform="translate(276,259)"/>
<path d="M0 0 C4.55555556 0.55555556 4.55555556 0.55555556 6 2 C6.1875 4.4375 6.1875 4.4375 6 7 C5.34 7.66 4.68 8.32 4 9 C-0.55555556 8.44444444 -0.55555556 8.44444444 -2 7 C-2.1875 4.5625 -2.1875 4.5625 -2 2 C-1.34 1.34 -0.68 0.68 0 0 Z " fill="#EFEFF0" transform="translate(293,234)"/>
<path d="M0 0 C4.55555556 0.55555556 4.55555556 0.55555556 6 2 C6.1875 4.4375 6.1875 4.4375 6 7 C5.34 7.66 4.68 8.32 4 9 C-0.55555556 8.44444444 -0.55555556 8.44444444 -2 7 C-2.1875 4.5625 -2.1875 4.5625 -2 2 C-1.34 1.34 -0.68 0.68 0 0 Z " fill="#848585" transform="translate(335,259)"/>
<path d="M0 0 C4.55555556 0.55555556 4.55555556 0.55555556 6 2 C6.1875 4.4375 6.1875 4.4375 6 7 C5.34 7.66 4.68 8.32 4 9 C-0.55555556 8.44444444 -0.55555556 8.44444444 -2 7 C-2.1875 4.5625 -2.1875 4.5625 -2 2 C-1.34 1.34 -0.68 0.68 0 0 Z " fill="#828384" transform="translate(349,259)"/>
<path d="M0 0 C1.65 0 3.3 0 5 0 C5.495 2.475 5.495 2.475 6 5 C-5.88 5 -17.76 5 -30 5 C-30 4.67 -30 4.34 -30 4 C-20.1 4 -10.2 4 0 4 C0 2.68 0 1.36 0 0 Z " fill="#494F52" transform="translate(162,312)"/>
<path d="M0 0 C1.875 0.75 1.875 0.75 2.875 1.75 C3.0625 4.1875 3.0625 4.1875 2.875 6.75 C2.215 7.41 1.555 8.07 0.875 8.75 C-1.75 8.375 -1.75 8.375 -4.125 7.75 C-4.8125 5.4375 -4.8125 5.4375 -5.125 2.75 C-3.57413519 0.30126608 -2.92569791 -0.34419975 0 0 Z " fill="#F0F0F1" transform="translate(323.125,234.25)"/>
<path d="M0 0 C0.99 0.33 1.98 0.66 3 1 C3.36337162 4.27034459 3.28544288 5.60883753 1.3125 8.3125 C-1.39116247 10.28544288 -2.72965541 10.36337162 -6 10 C-6 9.34 -6 8.68 -6 8 C-7.32 7.67 -8.64 7.34 -10 7 C-7.03 6.34 -4.06 5.68 -1 5 C-0.67 3.35 -0.34 1.7 0 0 Z " fill="#4A5052" transform="translate(373,230)"/>
<path d="M0 0 C2.31 0 4.62 0 7 0 C7.625 2.375 7.625 2.375 8 5 C6 7 6 7 2.875 7.125 C1.451875 7.063125 1.451875 7.063125 0 7 C0 4.69 0 2.38 0 0 Z " fill="#F9F9F9" transform="translate(363,230)"/>
<path d="M0 0 C4.62 0 9.24 0 14 0 C14 1.32 14 2.64 14 4 C12.22950311 4.05410687 10.45853151 4.09284119 8.6875 4.125 C7.20830078 4.15980469 7.20830078 4.15980469 5.69921875 4.1953125 C3 4 3 4 0 2 C0 1.34 0 0.68 0 0 Z " fill="#565A5C" transform="translate(215,226)"/>
<path d="M0 0 C0.66 0 1.32 0 2 0 C2.0825 1.27875 2.165 2.5575 2.25 3.875 C2.45869931 6.05333418 2.45869931 6.05333418 3 8 C4.92064793 9.5899433 4.92064793 9.5899433 7 10 C7 10.66 7 11.32 7 12 C4.66705225 12.04241723 2.33297433 12.04092937 0 12 C-1 11 -1 11 -1.1328125 8.75 C-1.13023437 7.8425 -1.12765625 6.935 -1.125 6 C-1.12757813 5.0925 -1.13015625 4.185 -1.1328125 3.25 C-1 1 -1 1 0 0 Z " fill="#44494A" transform="translate(261,234)"/>
<path d="M0 0 C2.97 0 5.94 0 9 0 C9 0.66 9 1.32 9 2 C9.66 2 10.32 2 11 2 C13.1519437 5.22791555 13.20086443 6.28400809 13 10 C11.68 8.68 10.36 7.36 9 6 C8.67 6.99 8.34 7.98 8 9 C7.34 7.35 6.68 5.7 6 4 C4.68 4 3.36 4 2 4 C2 3.01 2 2.02 2 1 C1.34 0.67 0.68 0.34 0 0 Z " fill="#595C5F" transform="translate(318,231)"/>
<path d="M0 0 C4.875 0.875 4.875 0.875 6 2 C6.04092937 4.33297433 6.04241723 6.66705225 6 9 C4.02 9 2.04 9 0 9 C-0.33 7.68 -0.66 6.36 -1 5 C0.65 4.67 2.3 4.34 4 4 C4 3.34 4 2.68 4 2 C2.35 2 0.7 2 -1 2 C-0.67 1.34 -0.34 0.68 0 0 Z " fill="#838584" transform="translate(235,259)"/>
<path d="M0 0 C0.598125 0.226875 1.19625 0.45375 1.8125 0.6875 C2.1425 2.0075 2.4725 3.3275 2.8125 4.6875 C0.8325 4.6875 -1.1475 4.6875 -3.1875 4.6875 C-3.1875 5.3475 -3.1875 6.0075 -3.1875 6.6875 C-1.2075 6.6875 0.7725 6.6875 2.8125 6.6875 C2.1525 7.3475 1.4925 8.0075 0.8125 8.6875 C-1.8125 8.3125 -1.8125 8.3125 -4.1875 7.6875 C-4.875 5.375 -4.875 5.375 -5.1875 2.6875 C-3.60587179 0.1901923 -2.97595617 -0.4251366 0 0 Z " fill="#7B7C7D" transform="translate(258.1875,259.3125)"/>
<path d="M0 0 C1.3921875 0.2784375 1.3921875 0.2784375 2.8125 0.5625 C6.01343771 1.24123881 6.01343771 1.24123881 9 0 C9.66 0.66 10.32 1.32 11 2 C10 3.5 10 3.5 8 5 C5.27466223 5.44286739 2.72533777 5.44286739 0 5 C-2 3.5 -2 3.5 -3 2 C-2.34 2 -1.68 2 -1 2 C-0.67 1.34 -0.34 0.68 0 0 Z " fill="#55585B" transform="translate(274,241)"/>
<path d="M0 0 C11.82474206 -0.68881993 11.82474206 -0.68881993 15.75 1.9375 C16.86375 2.9584375 16.86375 2.9584375 18 4 C18 4.33 18 4.66 18 5 C13.86050943 5.11187812 10.92487115 4.30829038 7 3 C4.66816393 2.32811503 2.33498858 1.66084583 0 1 C0 0.67 0 0.34 0 0 Z " fill="#E27968" transform="translate(181,290)"/>
<path d="M0 0 C2.97 0 5.94 0 9 0 C9 1.32 9 2.64 9 4 C7.68 4 6.36 4 5 4 C4.67 4.99 4.34 5.98 4 7 C3.01 6.67 2.02 6.34 1 6 C0.67 4.02 0.34 2.04 0 0 Z " fill="#565A5C" transform="translate(334,231)"/>
<path d="M0 0 C-0.33 1.98 -0.66 3.96 -1 6 C-3.3125 6.3125 -3.3125 6.3125 -6 6 C-7.8125 3.5 -7.8125 3.5 -9 1 C-6.04335481 -0.4783226 -3.25770263 -0.06032783 0 0 Z " fill="#9F9FA1" transform="translate(250,237)"/>
<path d="M0 0 C0.33 0 0.66 0 1 0 C1.33 4.95 1.66 9.9 2 15 C2.99 14.34 3.98 13.68 5 13 C5 15.31 5 17.62 5 20 C3.35 20 1.7 20 0 20 C0 13.4 0 6.8 0 0 Z " fill="#6F7072" transform="translate(403,226)"/>
<path d="M0 0 C1.051875 -0.00386719 1.051875 -0.00386719 2.125 -0.0078125 C4 0.125 4 0.125 6 1.125 C5.67 2.115 5.34 3.105 5 4.125 C1.37 4.125 -2.26 4.125 -6 4.125 C-6 3.135 -6 2.145 -6 1.125 C-3.75487738 0.00243869 -2.48543351 -0.00913762 0 0 Z " fill="#545557" transform="translate(247,230.875)"/>
<path d="M0 0 C0.66 0 1.32 0 2 0 C2.66 0.99 3.32 1.98 4 3 C7.55672179 4.2188121 7.55672179 4.2188121 11 5 C10.67 5.66 10.34 6.32 10 7 C3.9453125 7.1953125 3.9453125 7.1953125 2 7 C0 5 0 5 -0.125 2.375 C-0.08375 1.59125 -0.0425 0.8075 0 0 Z " fill="#54575A" transform="translate(240,239)"/>
<path d="M0 0 C0.99 0 1.98 0 3 0 C3 3.96 3 7.92 3 12 C2.01 12 1.02 12 0 12 C0 8.04 0 4.08 0 0 Z " fill="#404646" transform="translate(233,225)"/>
<path d="M0 0 C3.16115776 1.36983503 3.9927092 1.9890638 6 5 C3.525 6.485 3.525 6.485 1 8 C-0.32 6.35 -1.64 4.7 -3 3 C-2.34 2.67 -1.68 2.34 -1 2 C-0.67 1.34 -0.34 0.68 0 0 Z " fill="#54595D" transform="translate(176,194)"/>
<path d="M0 0 C0.99 0 1.98 0 3 0 C3 3.63 3 7.26 3 11 C2.34 11 1.68 11 1 11 C0.67 11.66 0.34 12.32 0 13 C0 8.71 0 4.42 0 0 Z " fill="#3D4545" transform="translate(307,225)"/>
<path d="M0 0 C2.64 0 5.28 0 8 0 C8 0.33 8 0.66 8 1 C6.02 1 4.04 1 2 1 C2 2.32 2 3.64 2 5 C3.98 5 5.96 5 8 5 C8 5.33 8 5.66 8 6 C6.02 6 4.04 6 2 6 C2 7.65 2 9.3 2 11 C1.34 11 0.68 11 0 11 C0 7.37 0 3.74 0 0 Z " fill="#757879" transform="translate(288,257)"/>
<path d="M0 0 C2.64 0 5.28 0 8 0 C8 0.33 8 0.66 8 1 C6.02 1 4.04 1 2 1 C2 2.32 2 3.64 2 5 C3.65 5 5.3 5 7 5 C7 5.33 7 5.66 7 6 C5.35 6 3.7 6 2 6 C2 7.65 2 9.3 2 11 C1.34 11 0.68 11 0 11 C0 7.37 0 3.74 0 0 Z " fill="#818385" transform="translate(392,257)"/>
<path d="M0 0 C3.53571429 0.53571429 3.53571429 0.53571429 5 2 C5.04092937 4.33297433 5.04241723 6.66705225 5 9 C4.34 8.67 3.68 8.34 3 8 C3 7.01 3 6.02 3 5 C2.01 5 1.02 5 0 5 C0 5.99 0 6.98 0 8 C-0.66 8 -1.32 8 -2 8 C-1.67 6.68 -1.34 5.36 -1 4 C0.32 4 1.64 4 3 4 C3 3.34 3 2.68 3 2 C1.35 2 -0.3 2 -2 2 C-1.34 1.34 -0.68 0.68 0 0 Z " fill="#747778" transform="translate(304,259)"/>
<path d="M0 0 C2 1.75 2 1.75 4 4 C4 5.32 4 6.64 4 8 C2.02 8.99 2.02 8.99 0 10 C-1.231394 6.30581799 -0.64432764 3.7943739 0 0 Z " fill="#4D5456" transform="translate(187,204)"/>
<path d="M0 0 C2.31 0 4.62 0 7 0 C7 0.33 7 0.66 7 1 C5.35 1 3.7 1 2 1 C2 1.66 2 2.32 2 3 C3.32 3 4.64 3 6 3 C6 3.66 6 4.32 6 5 C4.68 5 3.36 5 2 5 C2 5.99 2 6.98 2 8 C1.34 8 0.68 8 0 8 C0 5.36 0 2.72 0 0 Z " fill="#F7DBD6" transform="translate(193,303)"/>
<path d="M0 0 C0.33 3.63 0.66 7.26 1 11 C0.34 11 -0.32 11 -1 11 C-1.33 9.35 -1.66 7.7 -2 6 C-2.66 6 -3.32 6 -4 6 C-4 4.68 -4 3.36 -4 2 C-1 0 -1 0 0 0 Z " fill="#474A4D" transform="translate(291,233)"/>
<path d="M0 0 C2.97 0.495 2.97 0.495 6 1 C5.67 2.32 5.34 3.64 5 5 C3.35 5 1.7 5 0 5 C0 3.35 0 1.7 0 0 Z " fill="#EDEDED" transform="translate(370,258)"/>
<path d="M0 0 C0.99 0.33 1.98 0.66 3 1 C5.3406065 0.72230092 7.67624308 0.39460023 10 0 C10 0.99 10 1.98 10 3 C6.7 3 3.4 3 0 3 C0 2.01 0 1.02 0 0 Z " fill="#42484D" transform="translate(380,243)"/>
<path d="M0 0 C0.66 0 1.32 0 2 0 C2.33 2.97 2.66 5.94 3 9 C1.68 8.34 0.36 7.68 -1 7 C-1.04254356 5.00045254 -1.04080783 2.99958364 -1 1 C-0.67 0.67 -0.34 0.34 0 0 Z " fill="#434649" transform="translate(271,235)"/>
<path d="M0 0 C1.9453125 -0.29296875 1.9453125 -0.29296875 4.125 -0.1875 C5.40375 -0.125625 6.6825 -0.06375 8 0 C8 0.99 8 1.98 8 3 C4.7 3 1.4 3 -2 3 C-1.34 2.01 -0.68 1.02 0 0 Z " fill="#44484B" transform="translate(410,226)"/>
<path d="M0 0 C5.52677733 -0.19392201 9.75614911 0.2520497 15 2 C15 2.33 15 2.66 15 3 C13.2507786 3.08142927 11.50045458 3.13938541 9.75 3.1875 C8.28820312 3.23970703 8.28820312 3.23970703 6.796875 3.29296875 C3.62531258 2.96075202 2.32959693 2.11327721 0 0 Z " fill="#E07F72" transform="translate(177,321)"/>
<path d="M0 0 C1.65 0.33 3.3 0.66 5 1 C4.67 2.32 4.34 3.64 4 5 C2.35 4.67 0.7 4.34 -1 4 C-0.67 2.68 -0.34 1.36 0 0 Z " fill="#F2F2F2" transform="translate(245,261)"/>
<path d="M0 0 C0.99 0.33 1.98 0.66 3 1 C2.67 3.31 2.34 5.62 2 8 C2.66 8 3.32 8 4 8 C4 8.66 4 9.32 4 10 C2.68 9.67 1.36 9.34 0 9 C-0.87890625 2.84765625 -0.87890625 2.84765625 -1 1 C-0.67 0.67 -0.34 0.34 0 0 Z " fill="#8B8D8D" transform="translate(312,258)"/>
<path d="M0 0 C0.33 0.99 0.66 1.98 1 3 C1.66 3 2.32 3 3 3 C3.33 4.65 3.66 6.3 4 8 C4.66 8 5.32 8 6 8 C5.67 8.66 5.34 9.32 5 10 C0.07692308 5.69230769 0.07692308 5.69230769 -0.3125 2.1875 C-0.209375 1.465625 -0.10625 0.74375 0 0 Z M5 5 C7.475 5.99 7.475 5.99 10 7 C8.68 7.33 7.36 7.66 6 8 C5.67 7.01 5.34 6.02 5 5 Z " fill="#646769" transform="translate(286,236)"/>
<path d="M0 0 C2.02045442 0.60183749 4.02111039 1.27306096 6 2 C6.33 2.66 6.66 3.32 7 4 C2.37078475 5.0161692 -1.34462607 4.83796731 -6 4 C-6 3.67 -6 3.34 -6 3 C-4.02 2.67 -2.04 2.34 0 2 C0 1.34 0 0.68 0 0 Z " fill="#616567" transform="translate(390,226)"/>
<path d="M0 0 C1.65 0.33 3.3 0.66 5 1 C4.67 2.32 4.34 3.64 4 5 C2.35 4.67 0.7 4.34 -1 4 C-0.67 2.68 -0.34 1.36 0 0 Z " fill="#F4F4F4" transform="translate(349,261)"/>
<path d="M0 0 C1.65 0.33 3.3 0.66 5 1 C4.67 2.32 4.34 3.64 4 5 C2.68 5 1.36 5 0 5 C-0.33 4.01 -0.66 3.02 -1 2 C-0.67 1.34 -0.34 0.68 0 0 Z " fill="#F3F3F3" transform="translate(335,261)"/>
<path d="M0 0 C1.65 0 3.3 0 5 0 C5 0.66 5 1.32 5 2 C4.01 2.495 4.01 2.495 3 3 C2.34227572 6.02934491 2.34227572 6.02934491 2 9 C1.34 9 0.68 9 0 9 C0 6.03 0 3.06 0 0 Z " fill="#A0A1A2" transform="translate(357,259)"/>
<path d="M0 0 C2.64 0 5.28 0 8 0 C8 0.99 8 1.98 8 3 C5.36 3 2.72 3 0 3 C0 2.01 0 1.02 0 0 Z " fill="#54585B" transform="translate(346,237)"/>
<path d="M0 0 C0.94875 0.04125 1.8975 0.0825 2.875 0.125 C2.875 1.45833333 2.875 2.79166667 2.875 4.125 C0.235 4.125 -2.405 4.125 -5.125 4.125 C-5.125 0.41389311 -3.38352144 0.13534086 0 0 Z " fill="#3B4145" transform="translate(174.125,207.875)"/>
<path d="M0 0 C-3.32307692 3.93846154 -3.32307692 3.93846154 -6.75 4.25 C-7.4925 4.1675 -8.235 4.085 -9 4 C-9 3.34 -9 2.68 -9 2 C-8.01 2 -7.02 2 -6 2 C-6 1.34 -6 0.68 -6 0 C-3 -1 -3 -1 0 0 Z " fill="#DF7766" transform="translate(183,309)"/>
<path d="M0 0 C2 3 2 3 2 5 C1.01 5 0.02 5 -1 5 C-1.33 5.66 -1.66 6.32 -2 7 C-2.99 7.33 -3.98 7.66 -5 8 C-3.8141763 4.62496331 -2.72426311 2.35277269 0 0 Z " fill="#E07B67" transform="translate(176,293)"/>
<path d="M0 0 C2.0625 0.4375 2.0625 0.4375 4 1 C4 1.66 4 2.32 4 3 C3.01 3 2.02 3 1 3 C1 4.65 1 6.3 1 8 C1.99 8 2.98 8 4 8 C4 8.66 4 9.32 4 10 C2.68 9.67 1.36 9.34 0 9 C-0.87890625 2.84765625 -0.87890625 2.84765625 -1 1 C-0.67 0.67 -0.34 0.34 0 0 Z " fill="#8C8D8D" transform="translate(268,258)"/>
<path d="M0 0 C2.97 0.495 2.97 0.495 6 1 C6.33 1.99 6.66 2.98 7 4 C4.69 4 2.38 4 0 4 C0 2.66666667 0 1.33333333 0 0 Z " fill="#505557" transform="translate(261,242)"/>
<path d="M0 0 C0.99 0.33 1.98 0.66 3 1 C2.67 2.98 2.34 4.96 2 7 C0.68 6.67 -0.64 6.34 -2 6 C-1.34 4.02 -0.68 2.04 0 0 Z " fill="#424648" transform="translate(327,237)"/>
<path d="M0 0 C2.64 0 5.28 0 8 0 C5.78065836 3.32901247 4.65316671 3.75023244 1 5 C0.67 4.34 0.34 3.68 0 3 C-0.99 3.495 -0.99 3.495 -2 4 C-1.34 2.68 -0.68 1.36 0 0 Z " fill="#585A5E" transform="translate(290,231)"/>
<path d="M0 0 C2.375 0.3125 2.375 0.3125 5 1 C5.66 1.99 6.32 2.98 7 4 C5.25 4.6875 5.25 4.6875 3 5 C0.75 3.5625 0.75 3.5625 -1 2 C-0.67 1.34 -0.34 0.68 0 0 Z " fill="#515354" transform="translate(278,231)"/>
<path d="M0 0 C0.99 0.33 1.98 0.66 3 1 C3 3.31 3 5.62 3 8 C2.01 8 1.02 8 0 8 C0 5.36 0 2.72 0 0 Z " fill="#3F4448" transform="translate(215,228)"/>
<path d="M0 0 C0.33 0 0.66 0 1 0 C1 1.98 1 3.96 1 6 C-0.98 6 -2.96 6 -5 6 C-4.67 4.68 -4.34 3.36 -4 2 C-2.02 2.495 -2.02 2.495 0 3 C0 2.01 0 1.02 0 0 Z " fill="#F36F57" transform="translate(138,213)"/>
<path d="M0 0 C1.32 0.33 2.64 0.66 4 1 C4 2.32 4 3.64 4 5 C2.68 5 1.36 5 0 5 C0 3.35 0 1.7 0 0 Z " fill="#E1806F" transform="translate(185,304)"/>
<path d="M0 0 C0 0.66 0 1.32 0 2 C-2.64 2.33 -5.28 2.66 -8 3 C-8 2.01 -8 1.02 -8 0 C-5.13822943 -1.43088528 -3.06624227 -0.59991697 0 0 Z " fill="#E5E5E6" transform="translate(250,235)"/>
<path d="M0 0 C0.66 0 1.32 0 2 0 C2 2.31 2 4.62 2 7 C1.01 6.67 0.02 6.34 -1 6 C-1.8125 4.0625 -1.8125 4.0625 -2 2 C-1.34 1.34 -0.68 0.68 0 0 Z " fill="#E15E4C" transform="translate(172,302)"/>
<path d="M0 0 C2.50037734 2.17424117 3.43628586 3.73045798 4 7 C3.01 6.67 2.02 6.34 1 6 C0.67 4.02 0.34 2.04 0 0 Z M0 6 C0.33 6.66 0.66 7.32 1 8 C-0.98 8 -2.96 8 -5 8 C-5 7.67 -5 7.34 -5 7 C-3.35 6.67 -1.7 6.34 0 6 Z " fill="#E08C7E" transform="translate(199,295)"/>
<path d="M0 0 C0.99 0 1.98 0 3 0 C3 2.31 3 4.62 3 7 C2.01 7 1.02 7 0 7 C0 4.69 0 2.38 0 0 Z " fill="#404548" transform="translate(215,239)"/>
<path d="M0 0 C1.98 0 3.96 0 6 0 C6.33 1.32 6.66 2.64 7 4 C5.35 4 3.7 4 2 4 C1.34 2.68 0.68 1.36 0 0 Z " fill="#4A5455" transform="translate(82,313)"/>
<path d="M0 0 C1.32 0 2.64 0 4 0 C4.33 0.99 4.66 1.98 5 3 C4.34 3.66 3.68 4.32 3 5 C2.01 5 1.02 5 0 5 C0 3.35 0 1.7 0 0 Z " fill="#EEBEB6" transform="translate(177,304)"/>
<path d="M0 0 C1.98 0.495 1.98 0.495 4 1 C4 1.99 4 2.98 4 4 C2.35 4 0.7 4 -1 4 C-0.67 2.68 -0.34 1.36 0 0 Z " fill="#BBBDBC" transform="translate(256,259)"/>
<path d="M0 0 C0.33 0 0.66 0 1 0 C1 2.31 1 4.62 1 7 C-0.32 7 -1.64 7 -3 7 C-2.25 2.25 -2.25 2.25 0 0 Z " fill="#65696B" transform="translate(407,239)"/>
<path d="M0 0 C1.65 0 3.3 0 5 0 C5.33 1.32 5.66 2.64 6 4 C4.35 4 2.7 4 1 4 C0.67 2.68 0.34 1.36 0 0 Z " fill="#4F5357" transform="translate(393,230)"/>
<path d="M0 0 C1.65 0 3.3 0 5 0 C4.67 1.32 4.34 2.64 4 4 C2.68 3.67 1.36 3.34 0 3 C0 2.01 0 1.02 0 0 Z " fill="#B1B2B1" transform="translate(234,264)"/>
<path d="M0 0 C2.31 0 4.62 0 7 0 C6.01 0.33 5.02 0.66 4 1 C4.33 1.99 4.66 2.98 5 4 C4.01 4 3.02 4 2 4 C1.34 2.68 0.68 1.36 0 0 Z " fill="#9D93B8" transform="translate(119,253)"/>
<path d="M0 0 C0.33 0.66 0.66 1.32 1 2 C0.67 2.66 0.34 3.32 0 4 C0.66 4.33 1.32 4.66 2 5 C0.35 5 -1.3 5 -3 5 C-3 4.34 -3 3.68 -3 3 C-4.32 2.67 -5.64 2.34 -7 2 C-4.69 1.34 -2.38 0.68 0 0 Z " fill="#54595C" transform="translate(370,235)"/>
<path d="M0 0 C0 0.99 0 1.98 0 3 C-0.99 3 -1.98 3 -3 3 C-3 3.66 -3 4.32 -3 5 C-3.66 5 -4.32 5 -5 5 C-5 3.68 -5 2.36 -5 1 C-3 0 -3 0 0 0 Z " fill="#474A4E" transform="translate(320,232)"/>
<path d="M0 0 C0.99 0 1.98 0 3 0 C2.67 2.31 2.34 4.62 2 7 C0 5 0 5 -0.125 2.375 C-0.08375 1.59125 -0.0425 0.8075 0 0 Z " fill="#444C4B" transform="translate(307,225)"/>
</svg>
